<svg width="40" height="40" viewBox="0 0 40 40" fill="none" xmlns="http://www.w3.org/2000/svg">
<path d="M13.022 35.8095H26.0439C32.5874 35.8095 33.7594 33.1889 34.1012 29.9985L35.3221 16.9765C35.7615 13.0048 34.6221 9.76562 27.6717 9.76562H11.3942C4.44376 9.76562 3.30434 13.0048 3.74383 16.9765L4.96464 29.9985C5.30646 33.1889 6.47844 35.8095 13.022 35.8095Z" stroke="#292D32" stroke-width="2.92994" stroke-miterlimit="10" stroke-linecap="round" stroke-linejoin="round"/>
<path d="M13.022 9.76879V8.46659C13.022 5.58549 13.022 3.25781 18.2308 3.25781H20.8351C26.0439 3.25781 26.0439 5.58549 26.0439 8.46659V9.76879" stroke="#292D32" stroke-width="2.92994" stroke-miterlimit="10" stroke-linecap="round" stroke-linejoin="round"/>
<path d="M22.7883 21.159V22.7867C22.7883 22.803 22.7883 22.803 22.7883 22.8193C22.7883 24.5935 22.772 26.0422 19.5328 26.0422C16.3099 26.0422 16.2773 24.6098 16.2773 22.8356V21.159C16.2773 19.5312 16.2773 19.5312 17.9051 19.5312H21.1606C22.7883 19.5312 22.7883 19.5312 22.7883 21.159Z" stroke="#292D32" stroke-width="2.92994" stroke-miterlimit="10" stroke-linecap="round" stroke-linejoin="round"/>
<path d="M35.2408 17.9062C31.4807 20.6409 27.1835 22.2686 22.7886 22.822" stroke="#292D32" stroke-width="2.92994" stroke-miterlimit="10" stroke-linecap="round" stroke-linejoin="round"/>
<path d="M4.26465 18.3438C7.92707 20.8505 12.0615 22.3643 16.2774 22.8363" stroke="#292D32" stroke-width="2.92994" stroke-miterlimit="10" stroke-linecap="round" stroke-linejoin="round"/>
</svg>
