<svg width="40" height="40" viewBox="0 0 40 40" fill="none" xmlns="http://www.w3.org/2000/svg">
<g clip-path="url(#clip0_55_9572)">
<path d="M12.4302 1.77574V7.10298" stroke="#036512" stroke-width="2.92998" stroke-miterlimit="10" stroke-linecap="round" stroke-linejoin="round"/>
<path d="M26.6362 1.77574V7.10298" stroke="#036512" stroke-width="2.92998" stroke-miterlimit="10" stroke-linecap="round" stroke-linejoin="round"/>
<path d="M4.43945 14.3657H34.6271" stroke="#036512" stroke-width="2.92998" stroke-miterlimit="10" stroke-linecap="round" stroke-linejoin="round"/>
<path d="M35.5147 13.3181V28.4119C35.5147 33.7392 32.8511 37.2907 26.636 37.2907H12.43C6.21489 37.2907 3.55127 33.7392 3.55127 28.4119V13.3181C3.55127 7.99085 6.21489 4.43936 12.43 4.43936H26.636C32.8511 4.43936 35.5147 7.99085 35.5147 13.3181Z" stroke="#036512" stroke-width="2.92998" stroke-miterlimit="10" stroke-linecap="round" stroke-linejoin="round"/>
<path d="M26.0939 22.5519H26.1099" stroke="#036512" stroke-width="3.41831" stroke-linecap="round" stroke-linejoin="round"/>
<path d="M26.0939 27.8791H26.1099" stroke="#036512" stroke-width="3.41831" stroke-linecap="round" stroke-linejoin="round"/>
<path d="M19.5251 22.5519H19.541" stroke="#036512" stroke-width="3.41831" stroke-linecap="round" stroke-linejoin="round"/>
<path d="M19.5251 27.8791H19.541" stroke="#036512" stroke-width="3.41831" stroke-linecap="round" stroke-linejoin="round"/>
<path d="M12.9528 22.5519H12.9688" stroke="#036512" stroke-width="3.41831" stroke-linecap="round" stroke-linejoin="round"/>
<path d="M12.9528 27.8791H12.9688" stroke="#036512" stroke-width="3.41831" stroke-linecap="round" stroke-linejoin="round"/>
</g>
<defs>
<clipPath id="clip0_55_9572">
<rect width="39.0664" height="39.0664" fill="white"/>
</clipPath>
</defs>
</svg>
