<svg width="40" height="40" viewBox="0 0 40 40" fill="none" xmlns="http://www.w3.org/2000/svg">
<rect x="1.46484" y="7.32812" width="36.1359" height="24.4162" rx="2.44162" stroke="#292D32" stroke-width="2.92994"/>
<mask id="path-2-inside-1_3048_29555" fill="white">
<path d="M19.5332 10.9922C22.9042 10.9925 25.6367 14.8187 25.6367 19.5381C25.6366 24.2574 22.9041 28.0836 19.5332 28.084C16.1621 28.084 13.4288 24.2576 13.4287 19.5381C13.4287 14.8185 16.162 10.9922 19.5332 10.9922ZM19.3184 14.6543L16.1143 16.3809V16.4365L16.5 17.6426H16.5674L18.832 16.7441V22.7598H16.5674V24.4209H22.7168V22.7598H20.6426V14.6543H19.3184Z"/>
</mask>
<path d="M19.5332 10.9922C22.9042 10.9925 25.6367 14.8187 25.6367 19.5381C25.6366 24.2574 22.9041 28.0836 19.5332 28.084C16.1621 28.084 13.4288 24.2576 13.4287 19.5381C13.4287 14.8185 16.162 10.9922 19.5332 10.9922ZM19.3184 14.6543L16.1143 16.3809V16.4365L16.5 17.6426H16.5674L18.832 16.7441V22.7598H16.5674V24.4209H22.7168V22.7598H20.6426V14.6543H19.3184Z" fill="#292D32"/>
<path d="M19.5332 10.9922L19.5335 8.06225H19.5332V10.9922ZM25.6367 19.5381L28.5667 19.5381V19.5381H25.6367ZM19.5332 28.084V31.0139H19.5335L19.5332 28.084ZM13.4287 19.5381H10.4988V19.5381L13.4287 19.5381ZM19.3184 14.6543V11.7244H18.5792L17.9285 12.075L19.3184 14.6543ZM16.1143 16.3809L14.7244 13.8016L13.1843 14.6314V16.3809H16.1143ZM16.1143 16.4365H13.1843V16.8937L13.3236 17.3291L16.1143 16.4365ZM16.5 17.6426L13.7093 18.5351L14.361 20.5725H16.5V17.6426ZM16.5674 17.6426V20.5725H17.1273L17.6478 20.366L16.5674 17.6426ZM18.832 16.7441H21.762V12.4297L17.7516 14.0207L18.832 16.7441ZM18.832 22.7598V25.6897H21.762V22.7598H18.832ZM16.5674 22.7598V19.8298H13.6374V22.7598H16.5674ZM16.5674 24.4209H13.6374V27.3508H16.5674V24.4209ZM22.7168 24.4209V27.3508H25.6467V24.4209H22.7168ZM22.7168 22.7598H25.6467V19.8298H22.7168V22.7598ZM20.6426 22.7598H17.7126V25.6897H20.6426V22.7598ZM20.6426 14.6543H23.5725V11.7244H20.6426V14.6543ZM19.5332 10.9922L19.5329 13.9221C20.0266 13.9222 20.7499 14.1974 21.4648 15.1983C22.1756 16.1936 22.7068 17.7186 22.7068 19.5381H25.6367H28.5667C28.5667 16.6382 27.7316 13.8904 26.2334 11.7926C24.7392 9.70052 22.4108 8.06254 19.5335 8.06225L19.5332 10.9922ZM25.6367 19.5381L22.7068 19.538C22.7067 21.3575 22.1755 22.8825 21.4647 23.8778C20.7498 24.8788 20.0265 25.154 19.5329 25.154L19.5332 28.084L19.5335 31.0139C22.4108 31.0136 24.7392 29.3756 26.2333 27.2835C27.7315 25.1857 28.5666 22.438 28.5667 19.5381L25.6367 19.5381ZM19.5332 28.084V25.154C19.0395 25.154 18.316 24.8788 17.601 23.8778C16.89 22.8825 16.3587 21.3574 16.3586 19.538L13.4287 19.5381L10.4988 19.5381C10.4988 22.4383 11.3342 25.1861 12.8327 27.2839C14.3271 29.376 16.6558 31.0139 19.5332 31.0139V28.084ZM13.4287 19.5381H16.3586C16.3586 17.7186 16.89 16.1936 17.6009 15.1983C18.3159 14.1974 19.0394 13.9221 19.5332 13.9221V10.9922V8.06225C16.6558 8.06225 14.3271 9.70011 12.8326 11.7922C11.3341 13.89 10.4988 16.6379 10.4988 19.5381H13.4287ZM19.3184 14.6543L17.9285 12.075L14.7244 13.8016L16.1143 16.3809L17.5041 18.9602L20.7082 17.2336L19.3184 14.6543ZM16.1143 16.3809H13.1843V16.4365H16.1143H19.0442V16.3809H16.1143ZM16.1143 16.4365L13.3236 17.3291L13.7093 18.5351L16.5 17.6426L19.2907 16.75L18.9049 15.544L16.1143 16.4365ZM16.5 17.6426V20.5725H16.5674V17.6426V14.7126H16.5V17.6426ZM16.5674 17.6426L17.6478 20.366L19.9125 19.4676L18.832 16.7441L17.7516 14.0207L15.4869 14.9191L16.5674 17.6426ZM18.832 16.7441H15.9021V22.7598H18.832H21.762V16.7441H18.832ZM18.832 22.7598V19.8298H16.5674V22.7598V25.6897H18.832V22.7598ZM16.5674 22.7598H13.6374V24.4209H16.5674H19.4973V22.7598H16.5674ZM16.5674 24.4209V27.3508H22.7168V24.4209V21.491H16.5674V24.4209ZM22.7168 24.4209H25.6467V22.7598H22.7168H19.7869V24.4209H22.7168ZM22.7168 22.7598V19.8298H20.6426V22.7598V25.6897H22.7168V22.7598ZM20.6426 22.7598H23.5725V14.6543H20.6426H17.7126V22.7598H20.6426ZM20.6426 14.6543V11.7244H19.3184V14.6543V17.5842H20.6426V14.6543Z" fill="#292D32" mask="url(#path-2-inside-1_3048_29555)"/>
<path d="M6.30664 10.0117C6.30259 10.0217 6.29906 10.032 6.29492 10.042C6.0986 10.5159 5.81099 10.9468 5.44824 11.3096C5.0855 11.6723 4.65461 11.9599 4.18066 12.1562C4.1708 12.1603 4.16029 12.163 4.15039 12.167V10.0117H6.30664Z" fill="#292D32" stroke="#292D32" stroke-width="2.92994"/>
<path d="M32.7588 10.0117C32.7628 10.0217 32.7664 10.032 32.7705 10.042C32.9668 10.5159 33.2544 10.9468 33.6172 11.3096C33.9799 11.6723 34.4108 11.9599 34.8848 12.1562C34.8946 12.1603 34.9051 12.163 34.915 12.167V10.0117H32.7588Z" fill="#292D32" stroke="#292D32" stroke-width="2.92994"/>
<path d="M6.30664 29.0586C6.30259 29.0486 6.29906 29.0383 6.29492 29.0283C6.0986 28.5544 5.81099 28.1235 5.44824 27.7607C5.0855 27.398 4.65461 27.1104 4.18066 26.9141C4.1708 26.91 4.16029 26.9073 4.15039 26.9033V29.0586H6.30664Z" fill="#292D32" stroke="#292D32" stroke-width="2.92994"/>
<path d="M32.7588 29.0586C32.7628 29.0486 32.7664 29.0383 32.7705 29.0283C32.9668 28.5544 33.2544 28.1235 33.6172 27.7607C33.9799 27.398 34.4108 27.1104 34.8848 26.9141C34.8946 26.91 34.9051 26.9073 34.915 26.9033V29.0586H32.7588Z" fill="#292D32" stroke="#292D32" stroke-width="2.92994"/>
</svg>
