<svg width="42" height="42" viewBox="0 0 42 42" fill="none" xmlns="http://www.w3.org/2000/svg">
<path d="M21.0161 28.5391V32.1715" stroke="#063D82" stroke-width="2.59457" stroke-linecap="round" stroke-linejoin="round"/>
<path d="M12.3677 38.0563H29.6648V36.3266C29.6648 34.4239 28.1081 32.8672 26.2054 32.8672H15.8271C13.9244 32.8672 12.3677 34.4239 12.3677 36.3266V38.0563V38.0563Z" stroke="#063D82" stroke-width="2.59457" stroke-miterlimit="10"/>
<path d="M10.6377 38.0547H31.3943" stroke="#063D82" stroke-width="2.59457" stroke-linecap="round" stroke-linejoin="round"/>
<path d="M20.7564 27.677C14.0624 27.677 8.64844 22.263 8.64844 15.5689V10.3798C8.64844 6.55713 11.7446 3.46094 15.5673 3.46094H25.9456C29.7683 3.46094 32.8645 6.55713 32.8645 10.3798V15.5689C32.8645 22.263 27.4505 27.677 20.7564 27.677Z" stroke="#063D82" stroke-width="2.59457" stroke-linecap="round" stroke-linejoin="round"/>
<path d="M9.46173 20.1504C8.16445 19.7352 7.02284 18.9742 6.12338 18.0747C4.56664 16.345 3.52881 14.2693 3.52881 11.8477C3.52881 9.42613 5.4315 7.52344 7.8531 7.52344H8.97741C8.63147 8.31911 8.4585 9.20126 8.4585 10.118V15.3072C8.4585 17.0369 8.82174 18.6628 9.46173 20.1504Z" stroke="#063D82" stroke-width="2.59457" stroke-linecap="round" stroke-linejoin="round"/>
<path d="M32.0518 20.1504C33.349 19.7352 34.4907 18.9742 35.3901 18.0747C36.9469 16.345 37.9847 14.2693 37.9847 11.8477C37.9847 9.42613 36.082 7.52344 33.6604 7.52344H32.5361C32.882 8.31911 33.055 9.20126 33.055 10.118V15.3072C33.055 17.0369 32.6918 18.6628 32.0518 20.1504Z" stroke="#063D82" stroke-width="2.59457" stroke-linecap="round" stroke-linejoin="round"/>
</svg>
