<svg width="447" height="432" viewBox="0 0 447 432" fill="none" xmlns="http://www.w3.org/2000/svg">
<g opacity="0.49" filter="url(#filter0_d_3048_29751)">
<path d="M200.906 37.865L201.235 37.963L201.969 38.0464L203.713 38.4346L205.988 38.8736L206.61 38.7213L206.981 38.4129L207.067 37.5095L207.137 36.8708L206.625 36.3084L205.988 35.6699L205.402 34.8753L204.698 34.6468L204.788 34.2368L205.245 33.8123L205.714 33.5801L205.984 33.2934L206.281 32.234L206.477 32.0453L206.676 31.9981L206.911 32.038L207.376 32.3138L209.166 33.1556L209.952 33.0286L212.954 32.8072L213.408 32.321L214.045 32.2122L215.124 31.726L215.55 31.6933L215.933 31.8095L216.414 31.7188L217.121 31.2653L217.419 31.2181L217.532 31.7188L217.989 32.2376L218.544 32.7129L218.81 32.8217L219.741 32.6694L220.229 32.8036L220.44 33.2462L220.503 33.6309L220.894 33.9574L221.394 33.9646L221.66 34.0989L222.117 34.3093L222.504 34.7918L223.404 35.1765L224.94 35.7134L225.655 35.7207L226.32 35.884L226.726 36.0472L227.168 35.7461L228.74 34.9152L229.506 34.4508L230.022 34.0989L230.409 33.7651L230.698 33.6781L230.894 33.8776L231.062 34.1461L231.625 34.3021L232.938 34.6141L233.54 34.7012L234.384 34.4363L235.108 33.9828L235.452 33.8268L235.987 34.2803L236.355 34.9152L236.601 35.1947L237.144 35.1293L238.219 35.2273L239.013 35.4305L239.505 35.4123L240.178 35.1293L240.541 34.5705L241.495 34.059L242.402 33.5873L242.922 32.9597L243.692 31.9147L243.95 31.4684L244.005 30.7137L245.088 28.5223L245.498 28.1196L245.741 27.4265L246.175 26.6248V25.9535L246.491 25.3041L247.113 24.7453L247.57 24.3933L248.305 23.4501L248.817 22.5611L250.096 20.5909L250.193 20.0322L250.701 19.6984L250.87 19.274L251.413 18.7478L251.984 18.3343L252.23 17.7211L252.648 17.0862L253.563 16.6108L253.903 16.3931L254.943 14.6443L255.06 13.8643L255.998 13.8352L257.472 14.7387L258.649 16.0702L260.224 20.3479L260.486 24.299L261.123 26.3671L262.957 30.6774L263.074 31.4756L263.367 32.4408L263.946 33.4639L264.587 35.1475L264.61 35.4595L264.196 35.9166L264.806 35.9493L265.357 36.2214L265.717 37.2881L266.174 38.0102L267.003 38.997L268.699 39.3199L269.982 39.4396L271.44 39.9984L272.511 40.7132L273.34 43.1405L273.07 44.6643L273.152 45.7382L272.722 46.1591L271.522 46.863L271.26 47.2368L268.809 49.0509L268.273 49.9071L266.96 51.0572L265.658 53.2487L263.754 55.2515L263.082 55.7595L262.054 55.8755L261.428 56.1839L259.951 57.8203L257.965 58.3645L257.781 59.3114L256.636 61.4739L255.623 62.6568L254.978 63.0558L253.356 65.211L253.149 66.1543L253.156 67.8051L252.074 68.8102L250.948 69.4487L250.807 70.8601L250.299 71.3427L249.865 71.6547L247.574 71.2847L244.017 72.8194L242.801 73.2003L246.683 73.2766L247.93 74.0929L250.662 73.5523L253.97 71.6075L255.232 71.1975L257.797 69.8769L258.84 68.9952L260.74 67.9394L261.147 67.475L262.21 66.9816L262.789 67.6093L262.836 68.0048L261.96 68.7775L262.187 69.2746L262.761 69.8987L262.969 70.7622L263.047 71.4189L263.402 72.5691L264.579 74.1255L264.618 74.6407L264.454 75.3193L265.017 75.878L265.599 76.2082L267.601 77.8844L269.165 76.9484L270.13 76.6762L270.744 76.2843L272.034 76.0231L273.089 76.415L275.103 76.9774L276.576 76.3787L279.555 75.0072L278.625 77.4345L277.949 79.6622L277.436 80.5621L276.928 82.9857L276.428 83.6351L276.021 84.3753L276.686 84.1177L277.257 83.7658L277.988 82.8333L278.535 81.2115L280.693 76.883L281.31 76.4985L283.105 76.005L286.193 72.5436L287.401 72.5546L288.175 73.3491L288.906 73.8208L289.094 72.8738L290.149 72.4892L289.035 72.0212L288.855 71.5967L288.75 70.8892L289.508 69.9313L289.055 69.0823L290.626 68.0156L290.505 67.2138L291.068 66.5534L291.779 65.8713L292.585 65.5411L292.733 64.957L293.241 64.7176L293.64 64.6304L294.426 65.2836L295.278 64.5144L296.107 64.2132L296.478 64.3474L296.943 64.6886L297.432 64.8336L297.827 64.7719L298.855 64.2785L299.805 65.0731L300.376 65.2473L300.219 64.8009L299.918 64.3874L300.153 64.0499L300.602 63.8395L302.025 64.0282L302.772 64.3837L303.581 65.0404L304.703 65.0876L305.587 65.0187L306.142 65.3888L307.045 65.3851L307.498 65.962L308.874 66.7711L309.171 67.3189L310.278 67.5839L311.317 67.9213L312.424 68.012L313.542 67.9321L313.589 68.6252L314.406 68.8138L315.457 68.6615L316.251 69.5141L318.374 70.1563L319.843 71.1395L320.809 70.9653L321.888 71.2266L323.045 73.3636L323.307 74.8802L323.823 74.6697L324.304 73.9913L324.921 72.7504L326.083 72.3404L326.638 72.8158L327.799 73.5777L328.799 74.4122L329.222 74.9492L329.976 75.0362L329.347 75.6966L329.98 75.6276L330.742 75.1596L331.395 76.132L331.888 77.1914L331.985 78.269L331.52 78.8858L331.114 79.274L330.66 80.0359L330.125 80.1738L329.589 80.4206L330.199 80.9756L330.617 81.509L331.532 80.0649L332.177 79.6586L333.107 79.4337L333.592 80.4604L333.694 81.4328L332.177 81.8355L332.173 82.6011L331.72 83.0364L331.422 83.5371L331.184 84.5822L330.875 85.4493L329.972 89.2952L329.957 89.9302L331.059 89.2517L333.092 87.2924L333.709 85.2062L334.511 83.1489L335.382 82.5032H335.926L336.735 82.7281L336.782 83.4029L336.657 83.7912L335.789 84.8144L335.422 85.3731L335.777 85.9246L337.744 84.2302L338.627 83.6351L339.378 83.7549L340.867 82.9712L343.869 82.8079L344.096 81.9117L344.694 81.5308L346.344 81.6323L349.557 82.4306L350.703 83.0836L352.419 83.6896L353.322 84.4117L357.094 85.7396L359.835 85.8811L361.191 85.2787L362.884 85.9101L363.779 86.6175L365.538 86.9985L367.313 87.198L368.669 86.6901L372.172 86.5232L376.57 85.7722L379.193 85.95L382.164 86.4398L384.283 87.6987L386.065 88.4099L387.144 89.1102L388.884 89.8394L392.594 91.795L393.895 92.9271L396.194 94.4655L398.504 95.1112L399.751 96.7222L400.74 97.4478L403.188 100.169L405.963 102.074L407.82 103.979L411.385 105.205L412.777 107.23L415.189 107.476L416.217 107.777L417.468 108.63L419.184 109.105L421.42 108.971L423.887 109.069L425.884 108.67L430.607 109.428L431.349 109.802L432.327 110.662L434.051 113.873L435.079 117.436L435.587 120.161L436.764 122.279L437.405 126.263L437.952 127.519L437.995 128.487L438.46 128.705L438.773 131.397L438.652 132.482L438.198 133.893L438.167 134.525L438.233 134.924L438.034 135.515L437.972 136.081L438.429 137.351L438.452 138.367L437.839 139.601L437.002 142.826L434.907 148.178L432.897 151.254L430.087 154.433L428.253 156.095L427.526 156.265L426.862 155.935L427.335 156.813L426.924 157.586L425.063 159.93L423.214 161.461L421.295 164.124L421.15 164.186L418.691 165.216L417.237 166.058L415.376 167.589L413.668 170.005L413.316 170.314L412.687 170.143L412.706 171.369L411.237 173.314L410.787 173.601L410.799 173.049L411.053 172.628L411.17 172.182L411.162 171.652L410.752 172.037L409.88 173.496L410.173 174.562L409.544 176.177L407.136 180.792L404.188 184.678L403.508 185.879L401.088 188.502L399.31 189.768L398.809 189.775L398.242 189.667L397.957 187.649L396.542 186.43L396.135 186.216L395.557 187.508L395.072 187.863L394.372 187.94L395.119 188.502L395.338 189.155L394.576 190.461L394.552 191.648L393.192 192.957L392.402 193.915L392.003 195.116L391.761 196.237L392.359 195.933L392.644 196.168L392.867 196.517L392.73 197.032L392.293 198.008L392.359 200.435L392.214 200.987L392.648 201.585L393.11 200.566L393.375 200.852L392.089 207.369L392.594 210.308L392.781 213.642L393.36 216.904L393.997 219.821L394.048 220.053L393.168 223.445L392.042 226.798L391.366 229.537L390.94 232.498L390.514 233.924L390.377 235.382L390.866 238.844L391.05 239.5L389.685 241.046L388.211 241.797L387.398 242.545L385.6 245.338L384.623 249.474L384.599 251.677L385.061 256.299L384.717 258.189L384.146 259.456L383.473 260.287L381.757 261.284L380.217 263.719L379.549 266.28L378.493 267.217L378.278 268.653L377.43 270.206L375.229 272.525L373.798 273.199L373.118 273.849L372.684 275.21L371.304 277.452L370.288 280.365L370.554 281.356L370.569 281.508L370.941 284.882L370.804 285.742L369.463 286.675L364.412 288.416L363.067 289.138L360.053 292.106L359.866 292.806L359.991 293.808L360.484 294.385L359.975 295.009L359.373 296.13L358.494 296.061H353.463L350.742 296.416L349.327 296.348L348.689 296.079L347.978 295.64L347.763 295.063L348.15 294.192L347.919 293.674L347.173 293.692L346.356 293.938L346.215 294.457L346.274 294.831L346.578 295.372L346.747 296.039L346.41 296.616L344.815 296.692L343.025 297.222L340.789 297.443L339.006 297.828L338.185 297.342L339.006 297.099L340.187 297.215L341.454 296.812L341.156 296.337L339.366 295.727L337.376 296.101L336.274 296.83L333.862 296.761L330.906 297.316L330.426 297.882L330.508 298.978L331.082 299.218L331.649 299.718L331.106 300.186L330.578 300.393L327.459 300.905L324.566 303.049L323.358 303.318L322.283 304.264L322.173 305.073L321.833 305.563L321.145 305.589L319.636 305.146L317.678 305.135L316.263 305.487L309.035 308.974L306.439 310.374L303.48 313.23L298.488 316.437L295.864 318.356L295.368 318.854L294.954 318.879L294.133 319.278L294.457 319.608L295.016 319.637L294.786 320.758L293.742 321.524L291.783 323.538L291.349 323.389L291.971 322.34L291.009 322.3L289.594 321.916L288.98 322.348L289.32 323.385L288.789 323.832L287.823 323.882L286.948 323.759L285.986 323.001L286.42 324.376L288.453 324.71L289.297 325.032L289.614 325.562L288.034 328.018L286.713 328.338L286.568 328.686H287.295L287.698 329.368L287.225 332.118L286.572 332.641L286.189 332.655L285.81 333.127L286.33 334.027L286.869 334.683L286.795 335.961L286.592 337.016L286.58 338.043L287.26 340.031L287.507 342.074L287.78 342.818L287.937 343.645L287.483 344.418L287.741 345.659L286.967 347.774L287.374 350.829L287.209 353.703L286.905 355.216L286.412 356.398L285.27 357.922L285.247 359.45L282.788 360.876L280.071 362.868L277.562 365.233L274.86 368.575L271.709 373.676L268.789 380.994L265.275 386.553L263.868 388.566L261.968 390.823L259.438 393.457L256.053 396.099L252.347 398.457L251.01 399.52L249.705 401.018L249.38 400.398L249.662 399.375L249.482 398.609L249.443 397.619L250.189 397.434L251.307 398.065L251.878 397.637L252.292 397.216L253.641 396.951L256.213 394.364L258.121 393.41L259.196 391.781L259.38 390.918L259.337 389.165L259.947 388.719L261.327 388.871L261.608 388.37L261.487 387.819L261.757 386.614L263.629 385.548L264.517 384.263L264.22 380.991L264.563 380.842L265.334 381.35L265.697 381.139L266.084 379.706L265.897 378.963L264.99 378.767L261.854 380.381L260.834 380.312L260.666 379.046L259.141 378.465L258.547 377.413L258.371 376.695L257.844 376.401L257.875 377.645L258.019 378.854L259.388 380.265L259.055 380.827L258.407 381.48L257.953 382.935L258.004 384.826L257.636 384.249L257.167 383.915L256.976 385.947L256.069 386.727L255.783 387.492L256.022 388.381L255.553 388.994L253.242 390.645L250.94 391.774L250.439 392.303L250.193 393.566L249.841 394.861L248.821 396.004L248.012 398.276L248.031 399.255L248.301 400.699L248.735 401.65L248.047 402.285L247.121 403.518L246.386 404.912L244.556 410.154L242.981 413.329L241.765 414.886L240.033 416.529L235.1 420.669L234.803 420.611L234.08 420.277L233.474 419.882L233.337 419.617L233.266 419.221L233.349 417.73L233.337 413.732L233.552 412.977L233.872 412.491L234.834 411.787L235.768 410.782L236.824 409.501L237.797 408.485L237.449 407.803L236.636 407.143L235.194 406.613L233.806 405.677L232.575 404.472L232.004 403.221L231.48 401.871L230.983 400.808L230.819 400.322L230.331 400.119L229.557 399.578L229.072 399.074L228.364 398.783L227.098 398.468L225.78 397.913L224.142 396.599L222.962 395.144L222.379 394.183L221.758 393.508L218.376 392.391L216.84 391.059L216.234 391.476L215.331 391.07L214.44 390.431L214.174 389.938L213.799 389.434L213.447 388.857L213.22 388.305L212.305 387.336L211.121 386.291L210.62 385.994L210.355 386.081L210.1 386.48L209.936 386.868L209.491 387.126L208.939 387.605L208.373 388.193L207.649 388.581L206.789 388.715L206.211 388.697L206.094 388.465L206.062 387.663L206.277 385.838L205.777 385.134L205.109 384.379L204.338 383.374L201.805 381.245L198.353 378.186L197.134 377.254L195.988 377.181L194.941 377.286L193.975 377.689L193.244 379.1L192.943 379.318L191.082 379.289L189.233 379.06L188.612 378.201L189.104 377.642L190.844 376.401L191.805 375.294L191.989 374.326L192.822 373.455L194.307 372.686L195.961 371.27L197.783 369.21L198.893 367.693L199.284 366.713L199.999 365.959L201.039 365.429L201.946 364.326L202.724 362.65L203.783 361.318L205.128 360.332L205.883 359.511L206.043 358.862L206.422 358.448L207.024 358.267L207.313 357.926L207.294 357.425L207.458 357.084L207.802 356.903L208.38 356.968L209.194 357.276L209.682 357.218L209.85 356.794L209.635 356.308L209.037 355.763L209.264 355.172L210.835 354.214L211.993 353.851L212.727 353.26L213.423 352.32L214.553 351.667L216.113 351.297L216.527 350.945L216.469 350.492L216.789 350.165L217.712 349.929L218.212 349.487L218.294 348.837L218.591 348.235L219.103 347.68L219.674 347.473L220.304 347.615L220.894 347.404L221.449 346.842L222.113 346.58L222.887 346.617L223.286 346.493L224.615 346.232L225.35 345.761L225.952 344.705L226.488 344.298L226.957 344.534L227.766 344.182L228.916 343.242L229.134 343.224L229.983 342.785L230.858 341.16L231.308 340.075L231.202 339.186L230.913 338.551L231.011 337.619L231.3 335.09L231.378 334.056L231.843 333.337L231.812 332.626L230.983 331.03L230.147 329.629L229.697 327.26L229.4 326.36L228.704 326.121L228.071 325.337L227.274 325.268L226.898 324.967L226.511 324.72L225.944 324.793L225.46 325.25L224.565 325.265L223.998 325.453L223.333 325.86L222.7 325.675L222.301 325.315L221.445 325.312L221.504 323.704L223.013 321.324L223.419 320.218L223.224 319.59L223.673 317.38L224.772 313.6L225.124 311.129L224.725 309.964L224.713 309.152L225.28 308.462L225.554 308.255L224.138 307.414L223.376 306.645L222.399 306.097L221.347 305.658L220.839 305.843L220.296 306.097L219.244 306.499L218.048 307.196L217.43 307.45L216.34 307.708L215.108 307.929L214.092 307.784L213.22 307.635L212.673 307.196L212.384 306.242V305.436L212.204 304.268L211.551 303.608L211.332 303.096L211.297 302.476L211.371 301.783L211.551 301.271L211.441 300.651L211.152 300.212L211.226 299.446L211.082 298.387L210.648 297.73L210.429 296.968V296.206L210.104 295.444L210.069 294.61L210.359 293.848L210.468 293.086L210.144 292.542L209.526 292.215L209.053 291.344L208.979 290.219L208.47 289.606L207.927 289.098H207.309L206.367 288.808L205.535 288.844L204.19 288.808L203.572 288.627L203.248 288.231L202.415 287.691L201.942 286.751L201.363 286.569L200.527 286.86L200.238 287.223L199.913 287.731L199.335 288.311L198.572 288.275L197.775 288.601L197.013 288.638L195.996 288.71L194.98 288.42L193.748 288.093L192.693 287.876L191.676 288.093L190.988 287.912L190.081 287.803L189.065 287.731L188.268 287.15L187.396 286.827L186.923 286.936L186.305 287.299L185.652 287.226L184.816 286.936L184.491 286.25L184.566 285.815L184.745 285.379L185.07 284.766L184.89 284.117L184.964 283.54L185.109 283.036L185.254 282.459L185.144 281.918L185.109 281.341L185.035 280.801L184.925 280.224L185.359 279.397L185.723 278.714L185.504 278.141L185.578 277.746L185.867 277.1L186.231 276.309L186.196 274.836L185.871 273.976L185.516 273.744L185.426 273.486L185.598 273.145L185.41 272.797L185.336 272.437L185.523 272.125L185.265 271.509L184.745 271.331L184.566 271.153L184.386 270.471L184.241 269.684L184.315 269.078L184.061 268.544L183.698 268.221L183.334 267.652L182.971 267.224L182.826 266.618L182.584 265.834L183.307 265.689L183.592 265.25L184.1 264.655L184.769 264.499L185.566 264.281L185.86 263.842L184.003 262.26L182.889 261.313L183.541 260.029L184.644 257.87L185.707 255.78L186.52 254.191L186.727 253.897L187.439 253.796L187.31 252.976L187.286 252.439L186.716 252.41L187.353 250.472L188.295 247.715L189.01 245.629L189.241 245.28L189.753 245.182L189.87 244.943L189.253 244.609L188.874 243.959L188.049 242.098L186.747 239.167L186.653 238.118L186.176 237.472L185.379 237.69L184.437 237.483L182.079 235.894L180.52 235.034L179.992 234.526L179.757 232.897L179.292 231.101L179.093 228.881L179.175 228.351L180.492 226.667L180.488 225.818L180.598 225.075L180.543 224.487L180.219 224.48L179.691 224.737L178.89 224.933L178.436 224.951L173.835 224.792L168.6 224.61L164.246 224.458L160.465 224.327L160.34 222.879L160.125 220.459L159.973 218.74L159.731 216.018L158.214 214.324L156.568 212.488L155.989 212.017L157.979 211.959L159.39 211.919L159.113 206.995L158.683 206.494L158.3 204.905L158.042 204.005L157.342 203.28L157.182 202.46L157.311 201.916L157.694 201.578L157.948 200.736L157.756 199.891L157.342 199.104L156.834 198.349L155.86 197.885L154.469 197.043L152.358 195.973L150.575 195.225L150.004 195.316L146.854 195.606L145.806 195.758L145.102 195.588L142.753 195.595L141.83 195.022L141.056 194.351L139.411 192.645L139.156 191.793L138.519 191.521L137.554 191.626L136.576 191.51L134.684 190.802L132.909 190.077L132.049 190.106L131.287 189.652L129.939 188.546L129.309 188.114L129.024 187.54L128.738 186.699L128.195 186.517L127.495 186.67L126.737 187.101L125.674 186.815L124.372 186.038L123.531 185.432L123.051 185.146L121.921 184.721L120.83 184.634L119.18 185.258L117.828 185.001L115.709 184.776L113.895 184.322L113.234 183.147L112.879 182.37L111.8 181.884L110.94 181.289L109.916 180.386L109.407 180.084L108.481 179.834L107.625 179.515L107.531 178.945L107.21 178.194L107.136 178.009L106.554 177.098L106.28 177.033L105.979 177.214L105.752 177.345L105.506 177.185L105.463 176.779L105.619 176.126L105.283 175.444L104.45 174.726L104.013 173.982L103.974 173.213L103.79 172.701L103.458 172.44L103.27 171.99L103.231 171.351L103.473 170.589L103.997 169.708L103.884 168.347L103.137 166.511L102.723 165.191L102.645 164.378L102.758 163.776L103.211 163.191L104.114 161.758L104.275 160.666L103.989 159.436L103.95 158.496L104.157 157.851L103.845 157.005L103.203 156.207L102.758 156.189L102.152 156.407L101.421 157.082L100.561 157.201L99.7985 156.784L97.4061 156.958L93.6885 157.375L92.203 157.807L91.3273 157.992L90.2679 158.134L88.5714 158.91L84.3846 161.925L83.5168 162.364L82.5316 162.426L81.957 162.843L81.0344 163.17L79.2206 164.363L78.2979 165.321L77.692 166.188L76.9923 166.217L76.4489 165.978L74.7328 166.098L73.8532 166.395L72.8994 167.237L71.7149 168.761L71.2262 169.196L70.2724 169.646L69.17 170.02L67.8057 170.579L67.1958 170.615L66.6564 170.713L66.1912 170.459L66.0348 169.911L65.3312 169.566L63.6503 169.392L61.1601 168.993L58.5917 168.917L57.3174 168.953L56.2697 168.978L54.4519 168.764L53.1266 168.728L51.9656 169.269L50.2768 169.94L49.5067 170.11L48.9399 170.136L48.3887 170.052L47.7437 169.704L46.8406 168.902L46.1449 169.211L45.6444 169.555L45.6523 167.81L45.664 165.187L45.6757 162.876L45.6835 161.029L45.6914 158.874L45.6992 157.354L46.1722 156.777L46.4615 156.131L46.1136 155.267L46.1918 154.476L46.4341 153.925L46.7508 153.388L46.0197 153.656L45.6992 153.805L45.3082 154.212L44.3622 154.763L43.7289 155.315L42.9823 155.764L42.0362 156.755L41.2584 157.299L40.4492 157.648L39.1043 158.812L37.9903 159.044L35.0428 159.222L31.9778 159.218L29.175 159.215L28.7528 159.2L28.7802 158.239L28.8505 157.56L27.8928 156.846L27.8264 155.964L27.5722 155.354L27.2517 154.611L26.5833 154.135L25.641 153.95L24.0969 153.54L21.8062 153.112L19.617 153.083L17.4708 153.123L18.7805 151.628L20.09 150.137L20.0509 148.838L18.9915 147.706L18.4208 147.002L17.5373 146.033L16.4466 145.362L15.8524 144.47L15.9072 143.929L15.8134 143.574L15.3989 143.367L14.9846 143.04L14.4139 142.681L13.7453 142.206V141.73L13.4914 141.226L13.0769 140.635V140.159L12.6938 139.416L12.2794 138.882L11.8651 138.527L11.2591 138.022L11.2904 137.609L11.7361 137.402L11.9276 136.927L11.8651 136.451L11.3569 136.154L10.7509 136.005L9.95353 135.145L9.37887 134.699L8.99568 134.43L8.77295 134.133L8.99568 133.926L9.24979 133.629L9.31624 133.153L9.18728 132.711V132.326L9.57035 132.206L9.98479 132.268L10.3991 132.032L10.9425 131.945L11.5484 131.883L11.869 131.619L11.8377 131.147L11.4546 130.229L11.0715 129.844L10.9425 129.282L11.2552 128.201L11.4546 127.508L12.1544 126.775L14.2888 125.204L16.2043 124.137L17.1386 124.028L17.8305 123.633L18.2683 123.027L18.3895 122.367L18.2918 121.79L17.9361 120.941L17.51 119.881L17.1894 119.29L17.4748 118.582L17.983 117.614L19.0228 116.151L19.9923 114.577L20.0978 114.12L20.2229 113.158L20.6686 111.199L20.9149 110.139L20.7859 109.729L21.0086 109.374L21.6146 109.076L23.0767 108.808L24.0696 108.224L25.5981 107.124L26.8724 105.956L27.928 105.579L29.8395 104.497L30.938 103.812L31.3681 103.598L32.4471 103.101L34.3821 102.93L35.9926 102.752L36.9035 102.426L38.2365 102.292L39.1317 101.925L40.1286 101.914L42.0011 101.54L42.6383 100.982L43.1817 100.314L43.9127 99.7445L44.7688 99.5958L45.7227 99.6937L46.8641 99.6828L48.248 99.505L48.9164 99.9477L49.2097 100.488L50.0618 101.036L50.6677 101.007L51.2737 100.887L52.1024 101.359L52.6459 101.301L52.9937 101.036L53.0602 100.376L53.2557 100.017L53.6623 97.9485L54.3347 94.5343L54.9444 91.4395L55.6169 88.0181L56.3166 84.4842L57.0241 80.9068L57.6027 77.9715L58.0991 75.4499L58.408 73.9007L58.885 71.8724L59.0725 70.0909L59.2641 69.5794L59.1429 69.1477L58.7286 68.5345L58.7325 68.266L58.7794 67.9104L58.7325 67.5984L58.2985 67.2646L57.9623 67.065L57.6965 66.7747L57.5753 66.372L57.3564 65.9693L57.2587 65.5448L56.9421 65.211L56.8482 64.7864L57.0671 64.3837L57.161 63.9592L57.0671 63.5602L56.946 63.0921L56.7036 62.6458L56.3361 62.3737L55.4565 62.0726L54.573 61.3505L53.5293 60.7047L52.2001 59.4784L51.9108 58.8979L51.907 57.3051L51.9656 55.578L52.0516 52.9693L52.0947 51.6414L52.8452 51.5652L53.5059 51.5289L54.1978 51.4382L54.7998 51.3475L55.3549 51.1552L55.7692 50.9194L56.2618 50.767L56.6488 50.8214L57.0358 50.611L57.462 50.4115L57.8763 50.2482L58.4784 50.1103L59.0412 50.4295L59.3579 50.7489L59.7254 50.9012L60.0694 50.865L60.3078 50.894L60.5542 51.1479L60.8708 51.1661L61.3243 51.1189L61.7504 51.0645L61.9458 50.9884L61.9771 50.825L61.8677 50.542L61.719 50.2772L61.8363 49.8672L61.8481 49.3738L61.8677 48.7461L61.5315 48.3977L61.1952 47.741L60.82 47.2113L60.2375 46.8558L59.6942 46.7179L59.2406 46.9393L58.8185 46.9755L58.5018 46.7759L57.9897 46.7687L57.4346 46.7034L56.8521 46.6272L55.7967 46.7723L55.4213 46.5946L54.9093 46.5764L54.3151 46.7687L54.3307 44.2471L54.3463 41.8706L54.3541 40.2015L54.8858 40.2379L55.5465 39.9367L56.5276 39.8895L57.2822 39.5739L57.7044 39.5485L58.5018 39.7008L59.3345 40.0275L60.1514 40.0746H62.2937H64.608H67.1841H69.7642H72.0002L72.6922 40.0927L72.2895 39.5376L71.8205 38.8192L72.0002 38.2532L72.231 37.6835L72.5007 37.386L73.1965 37.7017L73.779 38.6704L74.2637 39.3998L74.7367 39.759L75.3231 39.7988L75.9877 39.6755L76.6522 39.3743L77.7859 38.0392L78.9117 36.8963L79.4941 36.5116L80.1119 36.1597L80.5731 36.0254L81.2025 36.0691L81.7342 36.3811L82.0782 36.9253L83.3369 38.8192L84.2869 40.2487L84.6074 41.1413L84.627 43.3182L84.5683 45.2448L84.6934 45.4952L84.8811 45.5677L86.9569 45.1142L89.7754 47.4508L91.859 49.1778L92.7581 49.7293L93.2585 49.8817L94.4704 49.7656L95.9089 49.5406L96.6087 49.2939L97.3827 48.7534L98.6375 48.0023L99.6618 47.5887L100.064 47.5343L100.471 47.6685L101.335 48.1184L101.808 48.9529L101.374 49.9216L101.448 50.5239L102.355 50.4912L103.082 49.4899L103.59 48.6989L104.654 48.0567L105.69 47.146L106.413 46.2752L107.261 45.7673L108.54 45.1468L109.552 44.7695L110.498 44.8095L111.202 44.3994L112.113 43.6302L112.75 43.0135L113.192 42.7922L114.079 42.8538L115.185 42.7703L116.272 42.0193L117.261 41.1122L117.785 39.5811L118.129 38.2242L118.426 37.9485L118.786 37.7307L119.208 37.5892L120.224 37.4913L122.007 36.7693L123.234 36.0364L124.399 35.8804L124.743 35.6844L125.165 35.006L125.376 33.8123L125.216 33.0902L123.074 32.8653H121.67L119.348 32.6802L118.242 32.3827L118.004 32.176L117.98 31.9473L118.203 31.4285L118.418 30.4597L118.101 29.1463L116.944 27.0892L116.12 25.0646L116.01 23.6533L116.03 22.162L116.096 21.186L115.502 20.4241L112.292 18.0186L111.182 16.8829L110.815 16.0956L109.548 14.6479L109.869 14.2017L110.6 14.2162L111.221 14.5935L111.792 15.3989L112.199 15.5804H112.758L115.717 15.5768L116.409 15.7146L116.827 15.9868L117.183 16.3242L117.714 17.2639L118.285 17.7211L119.458 17.7066L121.295 17.6884L122.327 17.6049L122.945 17.8662L123.711 18.0839L125.326 17.5832L125.775 17.5722L126.26 17.7936L128 19.4735L128.996 20.181L129.837 21.1208L131.06 21.1243L132.077 20.3189L132.347 17.6086L132.652 16.8212L133.164 16.6L133.773 16.5745L134.497 16.15L135.278 15.5986L135.959 15.4134L138.785 16.0049L139.571 15.7219L142.432 15.0071L145.356 14.0855L146.177 12.9246L147.401 12.6125L148.363 11.7635L149.137 11.8505L150.309 11.8869L151.036 11.738L151.404 11.5785L151.807 11.1793L152.467 10.0437L153.269 9.6119L154.273 9.15483L154.961 8.61781L155.528 7.9538L155.79 7.37692L155.782 6.91985L155.45 6.03084L155.043 5.19641L154.606 4.9206L154.277 4.81541L155.274 4.61954L156.095 4.9134L157.377 4.95692L157.936 4.73192L158.745 4.84088L159.77 4.24219L160.426 4.43806H160.86L161.255 4.89159L161.564 5.40325L162.522 6.02364L162.428 6.96702L162.252 7.80144L162.127 8.76652L162.072 9.49952L161.666 10.2506L161.056 10.9508L160.876 11.2338L160.79 11.6038L161.2 11.8288L161.927 11.8941L162.834 11.9232L163.452 12.1409L164.249 12.1844L165.211 12.7866L165.676 13.1495L165.715 13.4288L165.411 14.0965L165.289 14.7132L165.528 15.1051L165.809 15.3881L166.587 16.7813L166.959 17.2639L167.271 17.4199L167.346 17.6884L167.08 18.1964L166.759 18.8421L166.036 19.5207L165.938 20.0576L165.364 20.3951L164.015 21.1969L164.249 22.4667L164.296 23.1089L164.273 23.6096L163.812 24.2808L163.014 26.2583L162.721 27.2452L162.463 29.5237L162.479 30.2892L162.846 31.3161L163.628 33.5982L164.074 33.9646L165.102 34.498L165.231 36.04L165.141 37.651L165.094 38.275L165.262 38.5434L165.723 38.6741L166.052 38.8664L166.103 39.3416L166.071 39.8388L166.837 40.1254L167.506 40.3068L168.124 40.9889L169.238 42.052L169.683 42.2479L169.906 42.687L170.848 43.5831L172.283 43.9096L173.729 44.3051L174.3 44.8675L174.894 45.3247L175.344 45.3464L175.723 45.2738L176.348 44.8783L176.849 44.5373L177.721 44.5591L178.745 44.5011L178.921 44.2216L179.018 43.8624L178.807 42.9445L179.171 42.6652L180.019 42.5091L180.187 42.0193L180.379 41.7508L180.621 41.4388L180.911 41.3953L181.274 41.5731L181.833 41.6856L182.463 41.8416L182.799 42.1536L183.358 42.179L183.979 42.1209L184.229 41.9213L184.413 41.5731L184.55 40.822L184.949 40.8002L185.75 40.6334L186.602 40.3032L187.744 40.2524L188.811 40.2597L189.347 40.0383L189.843 39.5558L190.805 38.1879L191.309 37.8722L191.852 37.6364L192.314 37.68L193.256 37.4513L194.03 37.1248L194.319 37.2083L194.921 37.9085L195.226 38.0609L195.672 38.1117L197.13 38.4672L197.904 38.3549L198.74 38.1299L199.546 38.0464L200.124 38.2024L200.543 37.9992L200.906 37.865ZM268.75 37.9013L267.656 38.3621L267.026 38.1842L266.448 36.9797L266.643 35.9783L267.437 35.6445L268.05 35.7171L268.277 35.8441L268.824 37.4877L268.75 37.9013ZM270.353 53.539L269.161 53.88L268.938 53.5607V52.2873L269.274 51.5906L270.791 51.3947L270.947 51.1879L271.381 51.0572L271.623 51.4962L271.588 52.2256L270.353 53.539ZM267.355 56.1042L267.159 57.5917L265.185 56.9641L265.334 55.4438L266.256 55.0156L267.073 54.2066L267.355 53.216L267.37 51.8664L267.675 51.6341L267.941 51.5398L268.18 51.6306L268.273 53.655L268.387 54.8959L267.355 56.1042ZM274.903 54.8016L275.353 55.3313L273.801 57.4466L272.945 57.7513L272.007 57.813L270.791 57.1817L268.899 57.2289L268.308 57.0801L268.246 56.1585L269.039 55.1753L270.627 55.2297L273.359 54.4388L274.903 54.8016ZM278.132 58.6512L275.224 58.9669L273.895 58.4625L274.196 58.038L275.189 57.3595L276.397 56.8806L277.48 56.6665L278.609 56.9349L278.918 57.5046L278.824 58.0778L278.132 58.6512ZM264.868 58.8434L261.866 60.8245L260.85 60.175L260.639 59.7976L260.811 59.4167L260.775 59.2571L261.112 58.5785L262.789 58.0235L263.633 57.9291L264.712 58.1033L264.892 58.5895L264.868 58.8434ZM276.103 59.8339L277.128 59.8775L278.578 59.6852L279.551 59.2135L280.638 59.1192L281.713 59.17L285.337 59.6961L287.514 59.8593L288.312 60.0263L289.09 60.2657L289.661 60.5233L289.801 61.082L289.274 61.9819L288.879 62.9252L288.511 64.2422L288.226 64.5071L287.749 64.4382L288.046 65.6173L287.941 66.089L287.702 66.5462L287.119 67.4968L286.236 68.7087L285.974 68.9625L285.302 69.3834L284.754 69.9204L284.872 70.4284L285.145 70.94L284.821 71.5785L283.777 72.5109L283.152 72.7359L282.577 72.8303L282.045 72.7396L281.103 71.8035L281.006 72.5364L280.751 73.2875L280.431 73.6975L279.215 73.6538L278.539 73.2511L277.44 72.8049L277.233 74.0095L276.549 74.8404L275.861 75.1016L274.782 75.2757L274.164 75.6313L272.999 75.3556L271.917 74.8041L271.303 74.7569L270.826 75.2031L268.312 75.2866L267.159 75.7401L266.456 75.6131L265.42 74.6989L265.255 74.0929L264.638 72.8629L264.083 71.4007L263.688 70.0728L264.02 68.9263L264.692 68.9625L265.486 69.1331L265.654 69.0533L265.693 68.6832L265.517 68.3785L264.239 68.4256L263.43 67.7435L263.289 66.6914L263.453 64.4999L263.559 64.0499L264.126 63.4223L264.309 62.8671L264.169 62.2794L264.411 61.209L264.939 60.2838L266.956 59.1156L269.297 58.6983L276.103 59.8339ZM251.925 72.0176L250.764 72.2099L252.261 69.6774L253.598 68.4982L253.618 66.1615L255.068 64.0826L256.401 63.2372L258.274 62.9905L259.298 64.2567L258.027 67.8488L257.656 67.8705L255.955 69.7644L254.063 71.0887L251.925 72.0176ZM328.17 70.8456L327.466 71.3318L327.236 71.5822L326.657 71.3935L326.763 71.1141L326.935 71.1432L327.122 70.3304L328.111 70.4284L328.17 70.8456ZM332.38 87.2597L331.301 88.2539L331.657 87.1037L331.477 86.3091L331.618 85.696L332.357 85.1009L332.58 85.0139L332.517 85.7468L332.568 85.9718L332.38 87.2597ZM395.522 191.169L395.092 191.394L395.049 190.733L396.171 189.902L396.354 188.919L396.941 189.373L397.097 189.877L397.089 190.087L395.522 191.169ZM393.77 195.08L393.395 195.693L392.961 195.602L392.789 195.192L392.468 194.793L392.641 194.481L392.93 194.304L393.731 194.329L393.77 195.08ZM336.438 298.303L336.782 298.604L336.149 298.575L335.437 298.84L334.347 299.076L333.909 298.633L334.851 298.016L335.195 297.556L335.441 297.654L335.758 297.987L336.438 298.303ZM324.03 306.557L324.022 307.134L323.565 306.84L322.353 307.065L321.931 306.63L323.565 304.769L323.893 305.041L324.147 305.378L324.323 305.85L324.136 306.155L324.03 306.557ZM287.561 334.665L287.358 334.803L286.67 333.399L288.054 332.053L288.515 332.597L288.148 333.664L287.741 334.419L287.561 334.665ZM288.644 350.198L287.89 350.717L288.027 347.999L288.433 347.092L288.875 346.414L289.422 345.996L289.829 346.588L289.481 347.898L288.523 349.505L288.644 350.198Z" fill="#CCCCCC"/>
<path d="M200.906 37.865L201.235 37.963L201.969 38.0464L203.713 38.4346L205.988 38.8736L206.61 38.7213L206.981 38.4129L207.067 37.5095L207.137 36.8708L206.625 36.3084L205.988 35.6699L205.402 34.8753L204.698 34.6468L204.788 34.2368L205.245 33.8123L205.714 33.5801L205.984 33.2934L206.281 32.234L206.477 32.0453L206.676 31.9981L206.911 32.038L207.376 32.3138L209.166 33.1556L209.952 33.0286L212.954 32.8072L213.408 32.321L214.045 32.2122L215.124 31.726L215.55 31.6933L215.933 31.8095L216.414 31.7188L217.121 31.2653L217.419 31.2181L217.532 31.7188L217.989 32.2376L218.544 32.7129L218.81 32.8217L219.741 32.6694L220.229 32.8036L220.44 33.2462L220.503 33.6309L220.894 33.9574L221.394 33.9646L221.66 34.0989L222.117 34.3093L222.504 34.7918L223.404 35.1765L224.94 35.7134L225.655 35.7207L226.32 35.884L226.726 36.0472L227.168 35.7461L228.74 34.9152L229.506 34.4508L230.022 34.0989L230.409 33.7651L230.698 33.6781L230.894 33.8776L231.062 34.1461L231.625 34.3021L232.938 34.6141L233.54 34.7012L234.384 34.4363L235.108 33.9828L235.452 33.8268L235.987 34.2803L236.355 34.9152L236.601 35.1947L237.144 35.1293L238.219 35.2273L239.013 35.4305L239.505 35.4123L240.178 35.1293L240.541 34.5705L241.495 34.059L242.402 33.5873L242.922 32.9597L243.692 31.9147L243.95 31.4684L244.005 30.7137L245.088 28.5223L245.498 28.1196L245.741 27.4265L246.175 26.6248V25.9535L246.491 25.3041L247.113 24.7453L247.57 24.3933L248.305 23.4501L248.817 22.5611L250.096 20.5909L250.193 20.0322L250.701 19.6984L250.87 19.274L251.413 18.7478L251.984 18.3343L252.23 17.7211L252.648 17.0862L253.563 16.6108L253.903 16.3931L254.943 14.6443L255.06 13.8643L255.998 13.8352L257.472 14.7387L258.649 16.0702L260.224 20.3479L260.486 24.299L261.123 26.3671L262.957 30.6774L263.074 31.4756L263.367 32.4408L263.946 33.4639L264.587 35.1475L264.61 35.4595L264.196 35.9166L264.806 35.9493L265.357 36.2214L265.717 37.2881L266.174 38.0102L267.003 38.997L268.699 39.3199L269.982 39.4396L271.44 39.9984L272.511 40.7132L273.34 43.1405L273.07 44.6643L273.152 45.7382L272.722 46.1591L271.522 46.863L271.26 47.2368L268.809 49.0509L268.273 49.9071L266.96 51.0572L265.658 53.2487L263.754 55.2515L263.082 55.7595L262.054 55.8755L261.428 56.1839L259.951 57.8203L257.965 58.3645L257.781 59.3114L256.636 61.4739L255.623 62.6568L254.978 63.0558L253.356 65.211L253.149 66.1543L253.156 67.8051L252.074 68.8102L250.948 69.4487L250.807 70.8601L250.299 71.3427L249.865 71.6547L247.574 71.2847L244.017 72.8194L242.801 73.2003L246.683 73.2766L247.93 74.0929L250.662 73.5523L253.97 71.6075L255.232 71.1975L257.797 69.8769L258.84 68.9952L260.74 67.9394L261.147 67.475L262.21 66.9816L262.789 67.6093L262.836 68.0048L261.96 68.7775L262.187 69.2746L262.761 69.8987L262.969 70.7622L263.047 71.4189L263.402 72.5691L264.579 74.1255L264.618 74.6407L264.454 75.3193L265.017 75.878L265.599 76.2082L267.601 77.8844L269.165 76.9484L270.13 76.6762L270.744 76.2843L272.034 76.0231L273.089 76.415L275.103 76.9774L276.576 76.3787L279.555 75.0072L278.625 77.4345L277.949 79.6622L277.436 80.5621L276.928 82.9857L276.428 83.6351L276.021 84.3753L276.686 84.1177L277.257 83.7658L277.988 82.8333L278.535 81.2115L280.693 76.883L281.31 76.4985L283.105 76.005L286.193 72.5436L287.401 72.5546L288.175 73.3491L288.906 73.8208L289.094 72.8738L290.149 72.4892L289.035 72.0212L288.855 71.5967L288.75 70.8892L289.508 69.9313L289.055 69.0823L290.626 68.0156L290.505 67.2138L291.068 66.5534L291.779 65.8713L292.585 65.5411L292.733 64.957L293.241 64.7176L293.64 64.6304L294.426 65.2836L295.278 64.5144L296.107 64.2132L296.478 64.3474L296.943 64.6886L297.432 64.8336L297.827 64.7719L298.855 64.2785L299.805 65.0731L300.376 65.2473L300.219 64.8009L299.918 64.3874L300.153 64.0499L300.602 63.8395L302.025 64.0282L302.772 64.3837L303.581 65.0404L304.703 65.0876L305.587 65.0187L306.142 65.3888L307.045 65.3851L307.498 65.962L308.874 66.7711L309.171 67.3189L310.278 67.5839L311.317 67.9213L312.424 68.012L313.542 67.9321L313.589 68.6252L314.406 68.8138L315.457 68.6615L316.251 69.5141L318.374 70.1563L319.843 71.1395L320.809 70.9653L321.888 71.2266L323.045 73.3636L323.307 74.8802L323.823 74.6697L324.304 73.9913L324.921 72.7504L326.083 72.3404L326.638 72.8158L327.799 73.5777L328.799 74.4122L329.222 74.9492L329.976 75.0362L329.347 75.6966L329.98 75.6276L330.742 75.1596L331.395 76.132L331.888 77.1914L331.985 78.269L331.52 78.8858L331.114 79.274L330.66 80.0359L330.125 80.1738L329.589 80.4206L330.199 80.9756L330.617 81.509L331.532 80.0649L332.177 79.6586L333.107 79.4337L333.592 80.4604L333.694 81.4328L332.177 81.8355L332.173 82.6011L331.72 83.0364L331.422 83.5371L331.184 84.5822L330.875 85.4493L329.972 89.2952L329.957 89.9302L331.059 89.2517L333.092 87.2924L333.709 85.2062L334.511 83.1489L335.382 82.5032H335.926L336.735 82.7281L336.782 83.4029L336.657 83.7912L335.789 84.8144L335.422 85.3731L335.777 85.9246L337.744 84.2302L338.627 83.6351L339.378 83.7549L340.867 82.9712L343.869 82.8079L344.096 81.9117L344.694 81.5308L346.344 81.6323L349.557 82.4306L350.703 83.0836L352.419 83.6896L353.322 84.4117L357.094 85.7396L359.835 85.8811L361.191 85.2787L362.884 85.9101L363.779 86.6175L365.538 86.9985L367.313 87.198L368.669 86.6901L372.172 86.5232L376.57 85.7722L379.193 85.95L382.164 86.4398L384.283 87.6987L386.065 88.4099L387.144 89.1102L388.884 89.8394L392.594 91.795L393.895 92.9271L396.194 94.4655L398.504 95.1112L399.751 96.7222L400.74 97.4478L403.188 100.169L405.963 102.074L407.82 103.979L411.385 105.205L412.777 107.23L415.189 107.476L416.217 107.777L417.468 108.63L419.184 109.105L421.42 108.971L423.887 109.069L425.884 108.67L430.607 109.428L431.349 109.802L432.327 110.662L434.051 113.873L435.079 117.436L435.587 120.161L436.764 122.279L437.405 126.263L437.952 127.519L437.995 128.487L438.46 128.705L438.773 131.397L438.652 132.482L438.198 133.893L438.167 134.525L438.233 134.924L438.034 135.515L437.972 136.081L438.429 137.351L438.452 138.367L437.839 139.601L437.002 142.826L434.907 148.178L432.897 151.254L430.087 154.433L428.253 156.095L427.526 156.265L426.862 155.935L427.335 156.813L426.924 157.586L425.063 159.93L423.214 161.461L421.295 164.124L421.15 164.186L418.691 165.216L417.237 166.058L415.376 167.589L413.668 170.005L413.316 170.314L412.687 170.143L412.706 171.369L411.237 173.314L410.787 173.601L410.799 173.049L411.053 172.628L411.17 172.182L411.162 171.652L410.752 172.037L409.88 173.496L410.173 174.562L409.544 176.177L407.136 180.792L404.188 184.678L403.508 185.879L401.088 188.502L399.31 189.768L398.809 189.775L398.242 189.667L397.957 187.649L396.542 186.43L396.135 186.216L395.557 187.508L395.072 187.863L394.372 187.94L395.119 188.502L395.338 189.155L394.576 190.461L394.552 191.648L393.192 192.957L392.402 193.915L392.003 195.116L391.761 196.237L392.359 195.933L392.644 196.168L392.867 196.517L392.73 197.032L392.293 198.008L392.359 200.435L392.214 200.987L392.648 201.585L393.11 200.566L393.375 200.852L392.089 207.369L392.594 210.308L392.781 213.642L393.36 216.904L393.997 219.821L394.048 220.053L393.168 223.445L392.042 226.798L391.366 229.537L390.94 232.498L390.514 233.924L390.377 235.382L390.866 238.844L391.05 239.5L389.685 241.046L388.211 241.797L387.398 242.545L385.6 245.338L384.623 249.474L384.599 251.677L385.061 256.299L384.717 258.189L384.146 259.456L383.473 260.287L381.757 261.284L380.217 263.719L379.549 266.28L378.493 267.217L378.278 268.653L377.43 270.206L375.229 272.525L373.798 273.199L373.118 273.849L372.684 275.21L371.304 277.452L370.288 280.365L370.554 281.356L370.569 281.508L370.941 284.882L370.804 285.742L369.463 286.675L364.412 288.416L363.067 289.138L360.053 292.106L359.866 292.806L359.991 293.808L360.484 294.385L359.975 295.009L359.373 296.13L358.494 296.061H353.463L350.742 296.416L349.327 296.348L348.689 296.079L347.978 295.64L347.763 295.063L348.15 294.192L347.919 293.674L347.173 293.692L346.356 293.938L346.215 294.457L346.274 294.831L346.578 295.372L346.747 296.039L346.41 296.616L344.815 296.692L343.025 297.222L340.789 297.443L339.006 297.828L338.185 297.342L339.006 297.099L340.187 297.215L341.454 296.812L341.156 296.337L339.366 295.727L337.376 296.101L336.274 296.83L333.862 296.761L330.906 297.316L330.426 297.882L330.508 298.978L331.082 299.218L331.649 299.718L331.106 300.186L330.578 300.393L327.459 300.905L324.566 303.049L323.358 303.318L322.283 304.264L322.173 305.073L321.833 305.563L321.145 305.589L319.636 305.146L317.678 305.135L316.263 305.487L309.035 308.974L306.439 310.374L303.48 313.23L298.488 316.437L295.864 318.356L295.368 318.854L294.954 318.879L294.133 319.278L294.457 319.608L295.016 319.637L294.786 320.758L293.742 321.524L291.783 323.538L291.349 323.389L291.971 322.34L291.009 322.3L289.594 321.916L288.98 322.348L289.32 323.385L288.789 323.832L287.823 323.882L286.948 323.759L285.986 323.001L286.42 324.376L288.453 324.71L289.297 325.032L289.614 325.562L288.034 328.018L286.713 328.338L286.568 328.686H287.295L287.698 329.368L287.225 332.118L286.572 332.641L286.189 332.655L285.81 333.127L286.33 334.027L286.869 334.683L286.795 335.961L286.592 337.016L286.58 338.043L287.26 340.031L287.507 342.074L287.78 342.818L287.937 343.645L287.483 344.418L287.741 345.659L286.967 347.774L287.374 350.829L287.209 353.703L286.905 355.216L286.412 356.398L285.27 357.922L285.247 359.45L282.788 360.876L280.071 362.868L277.562 365.233L274.86 368.575L271.709 373.676L268.789 380.994L265.275 386.553L263.868 388.566L261.968 390.823L259.438 393.457L256.053 396.099L252.347 398.457L251.01 399.52L249.705 401.018L249.38 400.398L249.662 399.375L249.482 398.609L249.443 397.619L250.189 397.434L251.307 398.065L251.878 397.637L252.292 397.216L253.641 396.951L256.213 394.364L258.121 393.41L259.196 391.781L259.38 390.918L259.337 389.165L259.947 388.719L261.327 388.871L261.608 388.37L261.487 387.819L261.757 386.614L263.629 385.548L264.517 384.263L264.22 380.991L264.563 380.842L265.334 381.35L265.697 381.139L266.084 379.706L265.897 378.963L264.99 378.767L261.854 380.381L260.834 380.312L260.666 379.046L259.141 378.465L258.547 377.413L258.371 376.695L257.844 376.401L257.875 377.645L258.019 378.854L259.388 380.265L259.055 380.827L258.407 381.48L257.953 382.935L258.004 384.826L257.636 384.249L257.167 383.915L256.976 385.947L256.069 386.727L255.783 387.492L256.022 388.381L255.553 388.994L253.242 390.645L250.94 391.774L250.439 392.303L250.193 393.566L249.841 394.861L248.821 396.004L248.012 398.276L248.031 399.255L248.301 400.699L248.735 401.65L248.047 402.285L247.121 403.518L246.386 404.912L244.556 410.154L242.981 413.329L241.765 414.886L240.033 416.529L235.1 420.669L234.803 420.611L234.08 420.277L233.474 419.882L233.337 419.617L233.266 419.221L233.349 417.73L233.337 413.732L233.552 412.977L233.872 412.491L234.834 411.787L235.768 410.782L236.824 409.501L237.797 408.485L237.449 407.803L236.636 407.143L235.194 406.613L233.806 405.677L232.575 404.472L232.004 403.221L231.48 401.871L230.983 400.808L230.819 400.322L230.331 400.119L229.557 399.578L229.072 399.074L228.364 398.783L227.098 398.468L225.78 397.913L224.142 396.599L222.962 395.144L222.379 394.183L221.758 393.508L218.376 392.391L216.84 391.059L216.234 391.476L215.331 391.07L214.44 390.431L214.174 389.938L213.799 389.434L213.447 388.857L213.22 388.305L212.305 387.336L211.121 386.291L210.62 385.994L210.355 386.081L210.1 386.48L209.936 386.868L209.491 387.126L208.939 387.605L208.373 388.193L207.649 388.581L206.789 388.715L206.211 388.697L206.094 388.465L206.062 387.663L206.277 385.838L205.777 385.134L205.109 384.379L204.338 383.374L201.805 381.245L198.353 378.186L197.134 377.254L195.988 377.181L194.941 377.286L193.975 377.689L193.244 379.1L192.943 379.318L191.082 379.289L189.233 379.06L188.612 378.201L189.104 377.642L190.844 376.401L191.805 375.294L191.989 374.326L192.822 373.455L194.307 372.686L195.961 371.27L197.783 369.21L198.893 367.693L199.284 366.713L199.999 365.959L201.039 365.429L201.946 364.326L202.724 362.65L203.783 361.318L205.128 360.332L205.883 359.511L206.043 358.862L206.422 358.448L207.024 358.267L207.313 357.926L207.294 357.425L207.458 357.084L207.802 356.903L208.38 356.968L209.194 357.276L209.682 357.218L209.85 356.794L209.635 356.308L209.037 355.763L209.264 355.172L210.835 354.214L211.993 353.851L212.727 353.26L213.423 352.32L214.553 351.667L216.113 351.297L216.527 350.945L216.469 350.492L216.789 350.165L217.712 349.929L218.212 349.487L218.294 348.837L218.591 348.235L219.103 347.68L219.674 347.473L220.304 347.615L220.894 347.404L221.449 346.842L222.113 346.58L222.887 346.617L223.286 346.493L224.615 346.232L225.35 345.761L225.952 344.705L226.488 344.298L226.957 344.534L227.766 344.182L228.916 343.242L229.134 343.224L229.983 342.785L230.858 341.16L231.308 340.075L231.202 339.186L230.913 338.551L231.011 337.619L231.3 335.09L231.378 334.056L231.843 333.337L231.812 332.626L230.983 331.03L230.147 329.629L229.697 327.26L229.4 326.36L228.704 326.121L228.071 325.337L227.274 325.268L226.898 324.967L226.511 324.72L225.944 324.793L225.46 325.25L224.565 325.265L223.998 325.453L223.333 325.86L222.7 325.675L222.301 325.315L221.445 325.312L221.504 323.704L223.013 321.324L223.419 320.218L223.224 319.59L223.673 317.38L224.772 313.6L225.124 311.129L224.725 309.964L224.713 309.152L225.28 308.462L225.554 308.255L224.138 307.414L223.376 306.645L222.399 306.097L221.347 305.658L220.839 305.843L220.296 306.097L219.244 306.499L218.048 307.196L217.43 307.45L216.34 307.708L215.108 307.929L214.092 307.784L213.22 307.635L212.673 307.196L212.384 306.242V305.436L212.204 304.268L211.551 303.608L211.332 303.096L211.297 302.476L211.371 301.783L211.551 301.271L211.441 300.651L211.152 300.212L211.226 299.446L211.082 298.387L210.648 297.73L210.429 296.968V296.206L210.104 295.444L210.069 294.61L210.359 293.848L210.468 293.086L210.144 292.542L209.526 292.215L209.053 291.344L208.979 290.219L208.47 289.606L207.927 289.098H207.309L206.367 288.808L205.535 288.844L204.19 288.808L203.572 288.627L203.248 288.231L202.415 287.691L201.942 286.751L201.363 286.569L200.527 286.86L200.238 287.223L199.913 287.731L199.335 288.311L198.572 288.275L197.775 288.601L197.013 288.638L195.996 288.71L194.98 288.42L193.748 288.093L192.693 287.876L191.676 288.093L190.988 287.912L190.081 287.803L189.065 287.731L188.268 287.15L187.396 286.827L186.923 286.936L186.305 287.299L185.652 287.226L184.816 286.936L184.491 286.25L184.566 285.815L184.745 285.379L185.07 284.766L184.89 284.117L184.964 283.54L185.109 283.036L185.254 282.459L185.144 281.918L185.109 281.341L185.035 280.801L184.925 280.224L185.359 279.397L185.723 278.714L185.504 278.141L185.578 277.746L185.867 277.1L186.231 276.309L186.196 274.836L185.871 273.976L185.516 273.744L185.426 273.486L185.598 273.145L185.41 272.797L185.336 272.437L185.523 272.125L185.265 271.509L184.745 271.331L184.566 271.153L184.386 270.471L184.241 269.684L184.315 269.078L184.061 268.544L183.698 268.221L183.334 267.652L182.971 267.224L182.826 266.618L182.584 265.834L183.307 265.689L183.592 265.25L184.1 264.655L184.769 264.499L185.566 264.281L185.86 263.842L184.003 262.26L182.889 261.313L183.541 260.029L184.644 257.87L185.707 255.78L186.52 254.191L186.727 253.897L187.439 253.796L187.31 252.976L187.286 252.439L186.716 252.41L187.353 250.472L188.295 247.715L189.01 245.629L189.241 245.28L189.753 245.182L189.87 244.943L189.253 244.609L188.874 243.959L188.049 242.098L186.747 239.167L186.653 238.118L186.176 237.472L185.379 237.69L184.437 237.483L182.079 235.894L180.52 235.034L179.992 234.526L179.757 232.897L179.292 231.101L179.093 228.881L179.175 228.351L180.492 226.667L180.488 225.818L180.598 225.075L180.543 224.487L180.219 224.48L179.691 224.737L178.89 224.933L178.436 224.951L173.835 224.792L168.6 224.61L164.246 224.458L160.465 224.327L160.34 222.879L160.125 220.459L159.973 218.74L159.731 216.018L158.214 214.324L156.568 212.488L155.989 212.017L157.979 211.959L159.39 211.919L159.113 206.995L158.683 206.494L158.3 204.905L158.042 204.005L157.342 203.28L157.182 202.46L157.311 201.916L157.694 201.578L157.948 200.736L157.756 199.891L157.342 199.104L156.834 198.349L155.86 197.885L154.469 197.043L152.358 195.973L150.575 195.225L150.004 195.316L146.854 195.606L145.806 195.758L145.102 195.588L142.753 195.595L141.83 195.022L141.056 194.351L139.411 192.645L139.156 191.793L138.519 191.521L137.554 191.626L136.576 191.51L134.684 190.802L132.909 190.077L132.049 190.106L131.287 189.652L129.939 188.546L129.309 188.114L129.024 187.54L128.738 186.699L128.195 186.517L127.495 186.67L126.737 187.101L125.674 186.815L124.372 186.038L123.531 185.432L123.051 185.146L121.921 184.721L120.83 184.634L119.18 185.258L117.828 185.001L115.709 184.776L113.895 184.322L113.234 183.147L112.879 182.37L111.8 181.884L110.94 181.289L109.916 180.386L109.407 180.084L108.481 179.834L107.625 179.515L107.531 178.945L107.21 178.194L107.136 178.009L106.554 177.098L106.28 177.033L105.979 177.214L105.752 177.345L105.506 177.185L105.463 176.779L105.619 176.126L105.283 175.444L104.45 174.726L104.013 173.982L103.974 173.213L103.79 172.701L103.458 172.44L103.27 171.99L103.231 171.351L103.473 170.589L103.997 169.708L103.884 168.347L103.137 166.511L102.723 165.191L102.645 164.378L102.758 163.776L103.211 163.191L104.114 161.758L104.275 160.666L103.989 159.436L103.95 158.496L104.157 157.851L103.845 157.005L103.203 156.207L102.758 156.189L102.152 156.407L101.421 157.082L100.561 157.201L99.7985 156.784L97.4061 156.958L93.6885 157.375L92.203 157.807L91.3273 157.992L90.2679 158.134L88.5714 158.91L84.3846 161.925L83.5168 162.364L82.5316 162.426L81.957 162.843L81.0344 163.17L79.2206 164.363L78.2979 165.321L77.692 166.188L76.9923 166.217L76.4489 165.978L74.7328 166.098L73.8532 166.395L72.8994 167.237L71.7149 168.761L71.2262 169.196L70.2724 169.646L69.17 170.02L67.8057 170.579L67.1958 170.615L66.6564 170.713L66.1912 170.459L66.0348 169.911L65.3312 169.566L63.6503 169.392L61.1601 168.993L58.5917 168.917L57.3174 168.953L56.2697 168.978L54.4519 168.764L53.1266 168.728L51.9656 169.269L50.2768 169.94L49.5067 170.11L48.9399 170.136L48.3887 170.052L47.7437 169.704L46.8406 168.902L46.1449 169.211L45.6444 169.555L45.6523 167.81L45.664 165.187L45.6757 162.876L45.6835 161.029L45.6914 158.874L45.6992 157.354L46.1722 156.777L46.4615 156.131L46.1136 155.267L46.1918 154.476L46.4341 153.925L46.7508 153.388L46.0197 153.656L45.6992 153.805L45.3082 154.212L44.3622 154.763L43.7289 155.315L42.9823 155.764L42.0362 156.755L41.2584 157.299L40.4492 157.648L39.1043 158.812L37.9903 159.044L35.0428 159.222L31.9778 159.218L29.175 159.215L28.7528 159.2L28.7802 158.239L28.8505 157.56L27.8928 156.846L27.8264 155.964L27.5722 155.354L27.2517 154.611L26.5833 154.135L25.641 153.95L24.0969 153.54L21.8062 153.112L19.617 153.083L17.4708 153.123L18.7805 151.628L20.09 150.137L20.0509 148.838L18.9915 147.706L18.4208 147.002L17.5373 146.033L16.4466 145.362L15.8524 144.47L15.9072 143.929L15.8134 143.574L15.3989 143.367L14.9846 143.04L14.4139 142.681L13.7453 142.206V141.73L13.4914 141.226L13.0769 140.635V140.159L12.6938 139.416L12.2794 138.882L11.8651 138.527L11.2591 138.022L11.2904 137.609L11.7361 137.402L11.9276 136.927L11.8651 136.451L11.3569 136.154L10.7509 136.005L9.95353 135.145L9.37887 134.699L8.99568 134.43L8.77295 134.133L8.99568 133.926L9.24979 133.629L9.31624 133.153L9.18728 132.711V132.326L9.57035 132.206L9.98479 132.268L10.3991 132.032L10.9425 131.945L11.5484 131.883L11.869 131.619L11.8377 131.147L11.4546 130.229L11.0715 129.844L10.9425 129.282L11.2552 128.201L11.4546 127.508L12.1544 126.775L14.2888 125.204L16.2043 124.137L17.1386 124.028L17.8305 123.633L18.2683 123.027L18.3895 122.367L18.2918 121.79L17.9361 120.941L17.51 119.881L17.1894 119.29L17.4748 118.582L17.983 117.614L19.0228 116.151L19.9923 114.577L20.0978 114.12L20.2229 113.158L20.6686 111.199L20.9149 110.139L20.7859 109.729L21.0086 109.374L21.6146 109.076L23.0767 108.808L24.0696 108.224L25.5981 107.124L26.8724 105.956L27.928 105.579L29.8395 104.497L30.938 103.812L31.3681 103.598L32.4471 103.101L34.3821 102.93L35.9926 102.752L36.9035 102.426L38.2365 102.292L39.1317 101.925L40.1286 101.914L42.0011 101.54L42.6383 100.982L43.1817 100.314L43.9127 99.7445L44.7688 99.5958L45.7227 99.6937L46.8641 99.6828L48.248 99.505L48.9164 99.9477L49.2097 100.488L50.0618 101.036L50.6677 101.007L51.2737 100.887L52.1024 101.359L52.6459 101.301L52.9937 101.036L53.0602 100.376L53.2557 100.017L53.6623 97.9485L54.3347 94.5343L54.9444 91.4395L55.6169 88.0181L56.3166 84.4842L57.0241 80.9068L57.6027 77.9715L58.0991 75.4499L58.408 73.9007L58.885 71.8724L59.0725 70.0909L59.2641 69.5794L59.1429 69.1477L58.7286 68.5345L58.7325 68.266L58.7794 67.9104L58.7325 67.5984L58.2985 67.2646L57.9623 67.065L57.6965 66.7747L57.5753 66.372L57.3564 65.9693L57.2587 65.5448L56.9421 65.211L56.8482 64.7864L57.0671 64.3837L57.161 63.9592L57.0671 63.5602L56.946 63.0921L56.7036 62.6458L56.3361 62.3737L55.4565 62.0726L54.573 61.3505L53.5293 60.7047L52.2001 59.4784L51.9108 58.8979L51.907 57.3051L51.9656 55.578L52.0516 52.9693L52.0947 51.6414L52.8452 51.5652L53.5059 51.5289L54.1978 51.4382L54.7998 51.3475L55.3549 51.1552L55.7692 50.9194L56.2618 50.767L56.6488 50.8214L57.0358 50.611L57.462 50.4115L57.8763 50.2482L58.4784 50.1103L59.0412 50.4295L59.3579 50.7489L59.7254 50.9012L60.0694 50.865L60.3078 50.894L60.5542 51.1479L60.8708 51.1661L61.3243 51.1189L61.7504 51.0645L61.9458 50.9884L61.9771 50.825L61.8677 50.542L61.719 50.2772L61.8363 49.8672L61.8481 49.3738L61.8677 48.7461L61.5315 48.3977L61.1952 47.741L60.82 47.2113L60.2375 46.8558L59.6942 46.7179L59.2406 46.9393L58.8185 46.9755L58.5018 46.7759L57.9897 46.7687L57.4346 46.7034L56.8521 46.6272L55.7967 46.7723L55.4213 46.5946L54.9093 46.5764L54.3151 46.7687L54.3307 44.2471L54.3463 41.8706L54.3541 40.2015L54.8858 40.2379L55.5465 39.9367L56.5276 39.8895L57.2822 39.5739L57.7044 39.5485L58.5018 39.7008L59.3345 40.0275L60.1514 40.0746H62.2937H64.608H67.1841H69.7642H72.0002L72.6922 40.0927L72.2895 39.5376L71.8205 38.8192L72.0002 38.2532L72.231 37.6835L72.5007 37.386L73.1965 37.7017L73.779 38.6704L74.2637 39.3998L74.7367 39.759L75.3231 39.7988L75.9877 39.6755L76.6522 39.3743L77.7859 38.0392L78.9117 36.8963L79.4941 36.5116L80.1119 36.1597L80.5731 36.0254L81.2025 36.0691L81.7342 36.3811L82.0782 36.9253L83.3369 38.8192L84.2869 40.2487L84.6074 41.1413L84.627 43.3182L84.5683 45.2448L84.6934 45.4952L84.8811 45.5677L86.9569 45.1142L89.7754 47.4508L91.859 49.1778L92.7581 49.7293L93.2585 49.8817L94.4704 49.7656L95.9089 49.5406L96.6087 49.2939L97.3827 48.7534L98.6375 48.0023L99.6618 47.5887L100.064 47.5343L100.471 47.6685L101.335 48.1184L101.808 48.9529L101.374 49.9216L101.448 50.5239L102.355 50.4912L103.082 49.4899L103.59 48.6989L104.654 48.0567L105.69 47.146L106.413 46.2752L107.261 45.7673L108.54 45.1468L109.552 44.7695L110.498 44.8095L111.202 44.3994L112.113 43.6302L112.75 43.0135L113.192 42.7922L114.079 42.8538L115.185 42.7703L116.272 42.0193L117.261 41.1122L117.785 39.5811L118.129 38.2242L118.426 37.9485L118.786 37.7307L119.208 37.5892L120.224 37.4913L122.007 36.7693L123.234 36.0364L124.399 35.8804L124.743 35.6844L125.165 35.006L125.376 33.8123L125.216 33.0902L123.074 32.8653H121.67L119.348 32.6802L118.242 32.3827L118.004 32.176L117.98 31.9473L118.203 31.4285L118.418 30.4597L118.101 29.1463L116.944 27.0892L116.12 25.0646L116.01 23.6533L116.03 22.162L116.096 21.186L115.502 20.4241L112.292 18.0186L111.182 16.8829L110.815 16.0956L109.548 14.6479L109.869 14.2017L110.6 14.2162L111.221 14.5935L111.792 15.3989L112.199 15.5804H112.758L115.717 15.5768L116.409 15.7146L116.827 15.9868L117.183 16.3242L117.714 17.2639L118.285 17.7211L119.458 17.7066L121.295 17.6884L122.327 17.6049L122.945 17.8662L123.711 18.0839L125.326 17.5832L125.775 17.5722L126.26 17.7936L128 19.4735L128.996 20.181L129.837 21.1208L131.06 21.1243L132.077 20.3189L132.347 17.6086L132.652 16.8212L133.164 16.6L133.773 16.5745L134.497 16.15L135.278 15.5986L135.959 15.4134L138.785 16.0049L139.571 15.7219L142.432 15.0071L145.356 14.0855L146.177 12.9246L147.401 12.6125L148.363 11.7635L149.137 11.8505L150.309 11.8869L151.036 11.738L151.404 11.5785L151.807 11.1793L152.467 10.0437L153.269 9.6119L154.273 9.15483L154.961 8.61781L155.528 7.9538L155.79 7.37692L155.782 6.91985L155.45 6.03084L155.043 5.19641L154.606 4.9206L154.277 4.81541L155.274 4.61954L156.095 4.9134L157.377 4.95692L157.936 4.73192L158.745 4.84088L159.77 4.24219L160.426 4.43806H160.86L161.255 4.89159L161.564 5.40325L162.522 6.02364L162.428 6.96702L162.252 7.80144L162.127 8.76652L162.072 9.49952L161.666 10.2506L161.056 10.9508L160.876 11.2338L160.79 11.6038L161.2 11.8288L161.927 11.8941L162.834 11.9232L163.452 12.1409L164.249 12.1844L165.211 12.7866L165.676 13.1495L165.715 13.4288L165.411 14.0965L165.289 14.7132L165.528 15.1051L165.809 15.3881L166.587 16.7813L166.959 17.2639L167.271 17.4199L167.346 17.6884L167.08 18.1964L166.759 18.8421L166.036 19.5207L165.938 20.0576L165.364 20.3951L164.015 21.1969L164.249 22.4667L164.296 23.1089L164.273 23.6096L163.812 24.2808L163.014 26.2583L162.721 27.2452L162.463 29.5237L162.479 30.2892L162.846 31.3161L163.628 33.5982L164.074 33.9646L165.102 34.498L165.231 36.04L165.141 37.651L165.094 38.275L165.262 38.5434L165.723 38.6741L166.052 38.8664L166.103 39.3416L166.071 39.8388L166.837 40.1254L167.506 40.3068L168.124 40.9889L169.238 42.052L169.683 42.2479L169.906 42.687L170.848 43.5831L172.283 43.9096L173.729 44.3051L174.3 44.8675L174.894 45.3247L175.344 45.3464L175.723 45.2738L176.348 44.8783L176.849 44.5373L177.721 44.5591L178.745 44.5011L178.921 44.2216L179.018 43.8624L178.807 42.9445L179.171 42.6652L180.019 42.5091L180.187 42.0193L180.379 41.7508L180.621 41.4388L180.911 41.3953L181.274 41.5731L181.833 41.6856L182.463 41.8416L182.799 42.1536L183.358 42.179L183.979 42.1209L184.229 41.9213L184.413 41.5731L184.55 40.822L184.949 40.8002L185.75 40.6334L186.602 40.3032L187.744 40.2524L188.811 40.2597L189.347 40.0383L189.843 39.5558L190.805 38.1879L191.309 37.8722L191.852 37.6364L192.314 37.68L193.256 37.4513L194.03 37.1248L194.319 37.2083L194.921 37.9085L195.226 38.0609L195.672 38.1117L197.13 38.4672L197.904 38.3549L198.74 38.1299L199.546 38.0464L200.124 38.2024L200.543 37.9992L200.906 37.865ZM268.75 37.9013L267.656 38.3621L267.026 38.1842L266.448 36.9797L266.643 35.9783L267.437 35.6445L268.05 35.7171L268.277 35.8441L268.824 37.4877L268.75 37.9013ZM270.353 53.539L269.161 53.88L268.938 53.5607V52.2873L269.274 51.5906L270.791 51.3947L270.947 51.1879L271.381 51.0572L271.623 51.4962L271.588 52.2256L270.353 53.539ZM267.355 56.1042L267.159 57.5917L265.185 56.9641L265.334 55.4438L266.256 55.0156L267.073 54.2066L267.355 53.216L267.37 51.8664L267.675 51.6341L267.941 51.5398L268.18 51.6306L268.273 53.655L268.387 54.8959L267.355 56.1042ZM274.903 54.8016L275.353 55.3313L273.801 57.4466L272.945 57.7513L272.007 57.813L270.791 57.1817L268.899 57.2289L268.308 57.0801L268.246 56.1585L269.039 55.1753L270.627 55.2297L273.359 54.4388L274.903 54.8016ZM278.132 58.6512L275.224 58.9669L273.895 58.4625L274.196 58.038L275.189 57.3595L276.397 56.8806L277.48 56.6665L278.609 56.9349L278.918 57.5046L278.824 58.0778L278.132 58.6512ZM264.868 58.8434L261.866 60.8245L260.85 60.175L260.639 59.7976L260.811 59.4167L260.775 59.2571L261.112 58.5785L262.789 58.0235L263.633 57.9291L264.712 58.1033L264.892 58.5895L264.868 58.8434ZM276.103 59.8339L277.128 59.8775L278.578 59.6852L279.551 59.2135L280.638 59.1192L281.713 59.17L285.337 59.6961L287.514 59.8593L288.312 60.0263L289.09 60.2657L289.661 60.5233L289.801 61.082L289.274 61.9819L288.879 62.9252L288.511 64.2422L288.226 64.5071L287.749 64.4382L288.046 65.6173L287.941 66.089L287.702 66.5462L287.119 67.4968L286.236 68.7087L285.974 68.9625L285.302 69.3834L284.754 69.9204L284.872 70.4284L285.145 70.94L284.821 71.5785L283.777 72.5109L283.152 72.7359L282.577 72.8303L282.045 72.7396L281.103 71.8035L281.006 72.5364L280.751 73.2875L280.431 73.6975L279.215 73.6538L278.539 73.2511L277.44 72.8049L277.233 74.0095L276.549 74.8404L275.861 75.1016L274.782 75.2757L274.164 75.6313L272.999 75.3556L271.917 74.8041L271.303 74.7569L270.826 75.2031L268.312 75.2866L267.159 75.7401L266.456 75.6131L265.42 74.6989L265.255 74.0929L264.638 72.8629L264.083 71.4007L263.688 70.0728L264.02 68.9263L264.692 68.9625L265.486 69.1331L265.654 69.0533L265.693 68.6832L265.517 68.3785L264.239 68.4256L263.43 67.7435L263.289 66.6914L263.453 64.4999L263.559 64.0499L264.126 63.4223L264.309 62.8671L264.169 62.2794L264.411 61.209L264.939 60.2838L266.956 59.1156L269.297 58.6983L276.103 59.8339ZM251.925 72.0176L250.764 72.2099L252.261 69.6774L253.598 68.4982L253.618 66.1615L255.068 64.0826L256.401 63.2372L258.274 62.9905L259.298 64.2567L258.027 67.8488L257.656 67.8705L255.955 69.7644L254.063 71.0887L251.925 72.0176ZM328.17 70.8456L327.466 71.3318L327.236 71.5822L326.657 71.3935L326.763 71.1141L326.935 71.1432L327.122 70.3304L328.111 70.4284L328.17 70.8456ZM332.38 87.2597L331.301 88.2539L331.657 87.1037L331.477 86.3091L331.618 85.696L332.357 85.1009L332.58 85.0139L332.517 85.7468L332.568 85.9718L332.38 87.2597ZM395.522 191.169L395.092 191.394L395.049 190.733L396.171 189.902L396.354 188.919L396.941 189.373L397.097 189.877L397.089 190.087L395.522 191.169ZM393.77 195.08L393.395 195.693L392.961 195.602L392.789 195.192L392.468 194.793L392.641 194.481L392.93 194.304L393.731 194.329L393.77 195.08ZM336.438 298.303L336.782 298.604L336.149 298.575L335.437 298.84L334.347 299.076L333.909 298.633L334.851 298.016L335.195 297.556L335.441 297.654L335.758 297.987L336.438 298.303ZM324.03 306.557L324.022 307.134L323.565 306.84L322.353 307.065L321.931 306.63L323.565 304.769L323.893 305.041L324.147 305.378L324.323 305.85L324.136 306.155L324.03 306.557ZM287.561 334.665L287.358 334.803L286.67 333.399L288.054 332.053L288.515 332.597L288.148 333.664L287.741 334.419L287.561 334.665ZM288.644 350.198L287.89 350.717L288.027 347.999L288.433 347.092L288.875 346.414L289.422 345.996L289.829 346.588L289.481 347.898L288.523 349.505L288.644 350.198Z" stroke="white" stroke-width="7.83651"/>
</g>
<defs>
<filter id="filter0_d_3048_29751" x="-0.000175953" y="0" width="446.241" height="431.924" filterUnits="userSpaceOnUse" color-interpolation-filters="sRGB">
<feFlood flood-opacity="0" result="BackgroundImageFix"/>
<feColorMatrix in="SourceAlpha" type="matrix" values="0 0 0 0 0 0 0 0 0 0 0 0 0 0 0 0 0 0 127 0" result="hardAlpha"/>
<feOffset dy="3.52459"/>
<feGaussianBlur stdDeviation="1.7623"/>
<feComposite in2="hardAlpha" operator="out"/>
<feColorMatrix type="matrix" values="0 0 0 0 0 0 0 0 0 0 0 0 0 0 0 0 0 0 0.25 0"/>
<feBlend mode="normal" in2="BackgroundImageFix" result="effect1_dropShadow_3048_29751"/>
<feBlend mode="normal" in="SourceGraphic" in2="effect1_dropShadow_3048_29751" result="shape"/>
</filter>
</defs>
</svg>
