<svg width="43" height="43" viewBox="0 0 43 43" fill="none" xmlns="http://www.w3.org/2000/svg">
<path d="M9.48267 40.5622C8.08555 40.5622 6.74566 40.0072 5.75775 39.0193C4.76984 38.0314 4.21484 36.6915 4.21484 35.2944V12.116C4.21484 10.7189 4.76984 9.37899 5.75775 8.39108C6.74566 7.40318 8.08555 6.84818 9.48267 6.84818H12.8198C13.2824 6.047 13.9478 5.38176 14.7491 4.91939C15.4742 4.50099 16.2874 4.26206 17.121 4.22073C17.2663 4.21352 17.383 4.09597 17.3976 3.95118C17.458 3.34924 17.7243 2.78336 18.1559 2.35181C18.6498 1.85785 19.3198 1.58035 20.0183 1.58035H22.1254C22.4713 1.58035 22.8138 1.64848 23.1334 1.78085C23.453 1.91321 23.7433 2.10723 23.9879 2.35181C24.2325 2.59639 24.4265 2.88675 24.5589 3.20631C24.6576 3.44459 24.7205 3.69563 24.7462 3.95132C24.7607 4.09605 24.8773 4.21358 25.0226 4.22085C25.8558 4.26256 26.6686 4.50167 27.3932 4.92005C28.194 5.3824 28.8589 6.04738 29.3213 6.84818H32.6611C34.0582 6.84818 35.3981 7.40318 36.386 8.39108C37.3739 9.37899 37.9289 10.7189 37.9289 12.116V35.2944C37.9289 36.6915 37.3739 38.0314 36.386 39.0193C35.3981 40.0072 34.0582 40.5622 32.6611 40.5622H9.48267Z" stroke="#720C0C" stroke-width="3.16069"/>
<path d="M30.0268 6.84818C30.0268 9.75751 27.6683 12.116 24.759 12.116H17.384C14.4747 12.116 12.1162 9.75751 12.1162 6.84818" stroke="#720C0C" stroke-width="3.16069"/>
</svg>
