<svg width="40" height="40" viewBox="0 0 40 40" fill="none" xmlns="http://www.w3.org/2000/svg">
<rect x="1.46484" y="1.465" width="36.1364" height="36.1364" rx="7.32495" stroke="#0A5803" stroke-width="2.92998"/>
<path d="M31.2525 8.30173V14.1617H25.3926" stroke="#0A5803" stroke-width="2.92998" stroke-linecap="round" stroke-linejoin="round"/>
<path d="M7.81387 30.7648L7.81387 24.9048L13.6738 24.9048" stroke="#0A5803" stroke-width="2.92998" stroke-linecap="round" stroke-linejoin="round"/>
<path d="M7.3252 19.5333C7.3252 16.9551 8.14138 14.4432 9.65677 12.3574C11.1722 10.2717 13.3089 8.71921 15.7609 7.92253C18.2128 7.12584 20.8541 7.12584 23.306 7.92253C25.758 8.71921 27.8947 10.2717 29.4101 12.3574" stroke="#0A5803" stroke-width="2.92998" stroke-linecap="round"/>
<path d="M31.7422 19.5333C31.7422 22.1114 30.926 24.6233 29.4106 26.7091C27.8952 28.7948 25.7584 30.3473 23.3065 31.144C20.8545 31.9407 18.2133 31.9407 15.7614 31.144C13.3094 30.3473 11.1726 28.7948 9.65723 26.7091" stroke="#0A5803" stroke-width="2.92998" stroke-linecap="round"/>
</svg>
